<svg xmlns="http://www.w3.org/2000/svg" width="400" height="400" viewBox="0 0 400 400">
  <rect width="400" height="400" fill="#f5f0e8"/>
  <!-- Cup body -->
  <path d="M130 120 L150 320 L250 320 L270 120 Z" fill="#e8d5b5" stroke="#c4a882" stroke-width="2"/>
  <!-- Cup sleeve -->
  <rect x="125" y="185" width="150" height="80" rx="4" fill="#c4a882"/>
  <!-- Sleeve blank area -->
  <rect x="132" y="195" width="136" height="60" rx="3" fill="#f0e6d0"/>
  <!-- Lid -->
  <rect x="120" y="108" width="160" height="18" rx="9" fill="#8b6914"/>
  <rect x="168" y="100" width="64" height="12" rx="6" fill="#7a5e12"/>
  <!-- Steam wisps -->
  <path d="M170 80 Q175 65 165 55 Q155 45 160 32" fill="none" stroke="#c4a882" stroke-width="3" stroke-linecap="round" opacity="0.6"/>
  <path d="M200 75 Q205 58 195 48 Q185 38 190 22" fill="none" stroke="#c4a882" stroke-width="3" stroke-linecap="round" opacity="0.5"/>
  <path d="M230 80 Q235 63 225 53 Q215 43 220 30" fill="none" stroke="#c4a882" stroke-width="3" stroke-linecap="round" opacity="0.6"/>
</svg>